<svg width="531" height="189" viewBox="0 0 531 189" fill="none" xmlns="http://www.w3.org/2000/svg">
<path d="M52.7734 77.3281C52.7734 72.8255 51.6055 70.0833 49.2695 69.1016C46.9336 68.0859 44.0221 67.5781 40.5352 67.5781C33.3581 67.5781 26.8411 69 20.9844 71.8438C15.1615 74.6536 12.25 78.0391 12.25 82C12.25 84.8438 13.5365 87.332 16.1094 89.4648C18.7161 91.5638 24.3698 93.8828 33.0703 96.4219C41.5 98.8594 47.4922 101.382 51.0469 103.988C54.6354 106.561 56.4297 109.676 56.4297 113.332C56.4297 117.022 53.9414 121.017 48.9648 125.316C43.9883 129.582 37.9792 132.832 30.9375 135.066C23.9297 137.301 17.9714 138.418 13.0625 138.418C8.96615 138.418 5.85156 137.927 3.71875 136.945C1.61979 135.997 0.570312 134.796 0.570312 133.34C0.570312 132.324 0.875 131.089 1.48438 129.633C2.1276 128.143 2.77083 127.398 3.41406 127.398C4.09115 127.398 4.78516 127.517 5.49609 127.754C9.11849 129.108 12.707 129.785 16.2617 129.785C22.6602 129.785 29.4479 127.923 36.625 124.199C43.8021 120.441 47.3906 116.938 47.3906 113.688C47.3906 112.299 46.2904 110.979 44.0898 109.727C41.9232 108.44 36.4049 106.392 27.5352 103.582C16.5326 100.095 9.76172 96.7096 7.22266 93.4258C4.71745 90.1081 3.46484 86.6211 3.46484 82.9648C3.46484 75.9232 7.51042 70.2526 15.6016 65.9531C23.6927 61.6198 32.1562 59.4531 40.9922 59.4531C46.849 59.4531 51.3516 60.4518 54.5 62.4492C57.6484 64.4128 59.2227 66.5964 59.2227 69C59.2227 70.151 58.8672 71.8268 58.1562 74.0273C57.4453 76.2279 55.651 77.3281 52.7734 77.3281ZM101.08 93.832C97.9314 93.8997 91.1944 103.227 80.8689 121.812C77.3819 128.076 75.3506 131.495 74.7751 132.07C74.1996 132.612 73.1332 133.103 71.5759 133.543C70.0525 133.983 68.7829 134.203 67.7673 134.203C65.4991 134.203 64.365 129.785 64.365 120.949C64.365 115.973 65.4314 106.967 67.5642 93.9336C68.4444 88.6523 68.8845 84.8776 68.8845 82.6094C68.8845 80.375 69.8832 79.2578 71.8806 79.2578C75.6384 79.2578 77.5173 81.9661 77.5173 87.3828C77.5173 89.9219 76.891 94.8984 75.6384 102.312C74.1827 110.776 73.4379 115.922 73.404 117.75C75.503 115.719 78.5837 111.267 82.6462 104.395C88.4014 94.9831 92.6332 89.0247 95.3415 86.5195C98.0837 83.9805 100.911 82.7109 103.822 82.7109C106.023 82.7109 107.766 84.1836 109.052 87.1289C110.373 90.0742 111.168 97.099 111.439 108.203C111.507 110.979 111.761 113.044 112.201 114.398C112.641 115.753 112.963 116.43 113.166 116.43C114.757 116.43 118.21 111.013 123.525 100.18C126.369 94.4583 129.128 90.1081 131.802 87.1289C134.511 84.1497 137.507 82.6602 140.791 82.6602C143.533 82.6602 145.53 84.082 146.783 86.9258C148.036 89.7357 148.933 93.9167 149.474 99.4688C149.982 105.089 150.761 110.234 151.81 114.906C152.894 119.578 154.857 122.574 157.701 123.895C159.631 124.809 160.595 125.875 160.595 127.094C160.595 128.279 159.783 129.497 158.158 130.75C156.533 132.003 155.043 132.629 153.689 132.629C150.981 132.629 148.56 130.97 146.427 127.652C144.295 124.335 142.687 117.158 141.603 106.121C141.129 101.686 140.672 98.5378 140.232 96.6758C139.792 94.8138 139.098 93.8828 138.15 93.8828C136.728 93.8828 135.036 95.237 133.072 97.9453C131.142 100.654 128.011 106.155 123.677 114.449C120.292 120.915 117.719 125.232 115.959 127.398C114.232 129.531 112.556 130.598 110.931 130.598C109.476 130.598 108.172 130.022 107.021 128.871C105.87 127.686 105.142 126.281 104.838 124.656C104.533 122.997 104.211 118.952 103.873 112.52C103.365 101.822 102.434 95.5924 101.08 93.832ZM197.984 115.516C193.244 121.88 188.555 126.654 183.917 129.836C179.279 133.018 175.031 134.609 171.171 134.609C168.565 134.609 166.313 133.509 164.417 131.309C162.522 129.108 161.574 126.281 161.574 122.828C161.574 113.924 165.552 104.344 173.507 94.0859C181.463 83.7943 189.368 78.6484 197.222 78.6484C200.066 78.6484 202.182 80.2734 203.57 83.5234C204.01 84.6068 204.704 85.1484 205.652 85.1484C208.36 85.1484 209.714 86.1979 209.714 88.2969C209.714 89.3464 209.545 90.7852 209.206 92.6133C207.378 102.6 206.464 109.642 206.464 113.738C206.464 121.931 208.022 126.84 211.136 128.465C212.626 129.277 213.371 130.276 213.371 131.461C213.371 132.51 212.643 133.56 211.187 134.609C209.731 135.693 208.326 136.234 206.972 136.234C204.365 136.234 202.216 134.44 200.523 130.852C198.83 127.263 197.984 122.151 197.984 115.516ZM194.886 86.9258C190.417 86.9258 185.221 91.1237 179.296 99.5195C173.372 107.882 170.41 114.822 170.41 120.34C170.41 124.233 171.696 126.18 174.269 126.18C177.993 126.18 183.156 122.422 189.757 114.906C196.359 107.391 199.66 100.484 199.66 94.1875C199.66 89.3464 198.068 86.9258 194.886 86.9258ZM236.642 48.0273C239.079 48.0273 240.298 49.5846 240.298 52.6992C240.298 55.4753 238.825 62.0768 235.88 72.5039C234.018 79.0716 232.579 86.3164 231.564 94.2383C230.548 102.16 230.04 108.372 230.04 112.875C230.04 118.461 230.396 124.013 231.107 129.531C231.242 130.581 231.31 131.342 231.31 131.816C231.31 133.509 230.734 134.965 229.583 136.184C228.432 137.402 227.213 138.012 225.927 138.012C224.133 138.012 222.88 136.895 222.169 134.66C221.492 132.426 221.154 128.82 221.154 123.844C221.154 112.503 222.508 98.4531 225.216 81.6953C227.958 64.9375 230.125 55.1367 231.716 52.293C233.341 49.4492 234.983 48.0273 236.642 48.0273ZM260.472 48.0273C262.909 48.0273 264.128 49.5846 264.128 52.6992C264.128 55.4753 262.655 62.0768 259.71 72.5039C257.848 79.0716 256.409 86.3164 255.393 94.2383C254.378 102.16 253.87 108.372 253.87 112.875C253.87 118.461 254.225 124.013 254.936 129.531C255.072 130.581 255.14 131.342 255.14 131.816C255.14 133.509 254.564 134.965 253.413 136.184C252.262 137.402 251.043 138.012 249.757 138.012C247.962 138.012 246.71 136.895 245.999 134.66C245.322 132.426 244.983 128.82 244.983 123.844C244.983 112.503 246.337 98.4531 249.046 81.6953C251.788 64.9375 253.955 55.1367 255.546 52.293C257.171 49.4492 258.813 48.0273 260.472 48.0273ZM350.889 92.4609C350.889 93.0026 351.228 93.3581 351.905 93.5273C355.561 94.5768 358.794 96.625 361.604 99.6719C364.414 102.685 365.819 106.273 365.819 110.438C365.819 116.836 361.722 123.421 353.53 130.191C345.337 136.962 336.721 140.348 327.682 140.348C325.143 140.348 323.146 140.009 321.69 139.332C320.268 138.689 319.557 137.927 319.557 137.047C319.557 132.781 322.57 130.648 328.596 130.648C329.442 130.648 330.746 130.682 332.506 130.75C334.3 130.818 336.349 130.395 338.651 129.48C340.987 128.533 343.255 127.331 345.455 125.875C347.656 124.385 349.535 122.862 351.092 121.305C352.683 119.714 353.953 118.038 354.901 116.277C355.883 114.517 356.373 112.74 356.373 110.945C356.373 108.034 355.104 105.444 352.565 103.176C350.06 100.908 346.708 99.7734 342.51 99.7734C341.833 99.7734 340.225 100.315 337.686 101.398C335.147 102.516 333.488 103.074 332.709 103.074C330.069 103.074 328.41 102.736 327.733 102.059C327.09 101.382 326.768 100.18 326.768 98.4531C326.768 97.4036 329.629 95.7109 335.35 93.375C340.123 91.4792 344.745 88.3815 349.213 84.082C353.716 79.7826 355.967 76.1432 355.967 73.1641C355.967 71.099 355.121 69.457 353.428 68.2383C351.735 67.0195 349.366 66.4102 346.319 66.4102C341.274 66.4102 336.264 67.0365 331.287 68.2891C326.311 69.5078 323.569 70.6589 323.061 71.7422C322.587 72.8255 321.216 81.0352 318.948 96.3711C316.679 111.673 315.545 120.526 315.545 122.93C315.545 125.299 315.596 127.517 315.698 129.582C315.799 131.613 315.427 133.357 314.58 134.812C313.768 136.302 312.363 137.047 310.366 137.047C308.537 137.047 307.116 136.319 306.1 134.863C305.118 133.441 304.627 131.63 304.627 129.43C304.627 128.854 304.78 127.974 305.084 126.789C306.845 119.51 308.504 110.201 310.061 98.8594C311.618 87.5182 312.397 80.9674 312.397 79.207C312.397 77.7852 312.194 76.7357 311.787 76.0586C311.415 75.3815 310.535 75.043 309.147 75.043C308.605 75.043 308.064 75.0599 307.522 75.0938C307.014 75.1276 306.489 74.806 305.948 74.1289C305.44 73.4518 305.186 72.6393 305.186 71.6914C305.186 68.7122 309.976 65.7839 319.557 62.9062C329.138 60.0286 338.871 58.5898 348.756 58.5898C353.834 58.5898 357.981 59.9609 361.198 62.7031C364.448 65.4115 366.073 68.5938 366.073 72.25C366.073 74.9583 364.685 78.1576 361.909 81.8477C359.166 85.5039 355.493 89.0417 350.889 92.4609ZM406.914 115.516C402.175 121.88 397.486 126.654 392.848 129.836C388.21 133.018 383.961 134.609 380.102 134.609C377.495 134.609 375.244 133.509 373.348 131.309C371.452 129.108 370.504 126.281 370.504 122.828C370.504 113.924 374.482 104.344 382.438 94.0859C390.393 83.7943 398.298 78.6484 406.152 78.6484C408.996 78.6484 411.112 80.2734 412.5 83.5234C412.94 84.6068 413.634 85.1484 414.582 85.1484C417.29 85.1484 418.645 86.1979 418.645 88.2969C418.645 89.3464 418.475 90.7852 418.137 92.6133C416.309 102.6 415.395 109.642 415.395 113.738C415.395 121.931 416.952 126.84 420.066 128.465C421.556 129.277 422.301 130.276 422.301 131.461C422.301 132.51 421.573 133.56 420.117 134.609C418.662 135.693 417.257 136.234 415.902 136.234C413.296 136.234 411.146 134.44 409.453 130.852C407.761 127.263 406.914 122.151 406.914 115.516ZM403.816 86.9258C399.348 86.9258 394.151 91.1237 388.227 99.5195C382.302 107.882 379.34 114.822 379.34 120.34C379.34 124.233 380.626 126.18 383.199 126.18C386.923 126.18 392.086 122.422 398.688 114.906C405.289 107.391 408.59 100.484 408.59 94.1875C408.59 89.3464 406.999 86.9258 403.816 86.9258ZM453.342 122.371C453.342 120.171 450.633 117.665 445.217 114.855C438.344 111.335 433.689 108.525 431.252 106.426C428.848 104.293 427.646 101.923 427.646 99.3164C427.646 92.5794 431.015 86.9935 437.752 82.5586C444.523 78.1237 450.041 75.9062 454.306 75.9062C457.049 75.9062 459.029 76.3802 460.248 77.3281C461.5 78.276 462.127 79.918 462.127 82.2539C462.127 83.3034 461.67 84.2005 460.756 84.9453C459.875 85.6901 459.181 86.0625 458.674 86.0625C458.301 86.0625 457.573 85.8086 456.49 85.3008C455.407 84.8268 454.696 84.5898 454.357 84.5898C452.665 84.5898 449.228 85.8255 444.049 88.2969C438.869 90.7682 436.279 93.5612 436.279 96.6758C436.279 98.5716 437.193 100.298 439.021 101.855C440.849 103.379 444.133 105.258 448.873 107.492C452.698 109.32 455.745 111.284 458.013 113.383C460.316 115.448 461.467 117.885 461.467 120.695C461.467 125.875 457.895 129.938 450.752 132.883C443.609 135.794 436.787 137.25 430.287 137.25C424.803 137.25 422.06 135.388 422.06 131.664C422.06 130.378 422.67 129.43 423.888 128.82C425.141 128.211 426.394 127.906 427.646 127.906C428.154 127.906 429.119 128.076 430.541 128.414C431.929 128.753 432.843 128.922 433.283 128.922C437.041 128.922 441.069 128.296 445.369 127.043C449.668 125.79 452.326 124.233 453.342 122.371ZM482.402 66.0039C481.691 66.0039 481.149 65.2422 480.777 63.7188C480.641 63.2448 480.455 62.7201 480.218 62.1445C479.304 59.944 478.847 58.0312 478.847 56.4062C478.847 55.0521 479.643 53.681 481.234 52.293C482.859 50.8711 484.653 50.1602 486.617 50.1602C487.599 50.1602 488.699 50.5495 489.918 51.3281C491.136 52.0729 491.746 52.8008 491.746 53.5117C491.746 54.6289 491.322 56.5247 490.476 59.1992C489.664 61.8737 488.343 63.6849 486.515 64.6328C484.721 65.5469 483.35 66.0039 482.402 66.0039ZM475.75 122.727C475.75 125.299 476.105 128.194 476.816 131.41C476.951 132.02 477.019 132.527 477.019 132.934C477.019 133.543 476.461 134.322 475.343 135.27C474.226 136.251 473.041 136.742 471.789 136.742C468.505 136.742 466.863 133.729 466.863 127.703C466.863 121.474 468.149 111.622 470.722 98.1484C471.602 93.4427 472.043 90.5482 472.043 89.4648C472.043 87.332 472.432 85.5208 473.211 84.0312C473.989 82.5078 475.089 81.7461 476.511 81.7461C478.238 81.7461 479.592 82.1693 480.574 83.0156C481.589 83.8281 482.097 84.7422 482.097 85.7578C482.097 86.7734 481.86 88.1107 481.386 89.7695C478.847 98.707 477.273 105.105 476.664 108.965C476.054 112.824 475.75 117.411 475.75 122.727ZM504.048 136.895C498.97 136.895 495.06 135.439 492.318 132.527C489.609 129.616 488.255 125.536 488.255 120.289C488.255 111.453 491.759 102.143 498.767 92.3594C505.775 82.5417 512.292 77.6328 518.318 77.6328C521.06 77.6328 523.413 79.1224 525.376 82.1016C527.374 85.0469 528.372 88.1784 528.372 91.4961C528.372 93.4935 527.932 95.2201 527.052 96.6758C526.206 98.0977 525.342 98.8086 524.462 98.8086C522.499 98.8086 521.111 96.8281 520.298 92.8672C519.384 88.6016 518.064 86.4688 516.337 86.4688C512.816 86.4688 508.652 90.6497 503.845 99.0117C499.038 107.374 496.634 114.432 496.634 120.188C496.634 125.943 499.901 128.82 506.435 128.82C511.411 128.82 517.268 126.484 524.005 121.812C526.375 120.154 528.118 119.324 529.236 119.324C530.387 119.324 530.962 119.984 530.962 121.305C530.962 123.878 527.932 127.128 521.872 131.055C515.812 134.948 509.871 136.895 504.048 136.895Z" fill="#F35025"/>
<path d="M42.5957 40H36.6035V16.4375C36.6035 14.5078 36.722 12.1465 36.959 9.35352H36.8574C36.485 10.9447 36.1549 12.0872 35.8672 12.7812L25 40H20.8359L9.94336 12.9844C9.63867 12.1888 9.31706 10.9785 8.97852 9.35352H8.87695C9.01237 10.8092 9.08008 13.1875 9.08008 16.4883V40H3.49414V3.58984H12L21.5723 27.8379C22.3001 29.6999 22.7741 31.0879 22.9941 32.002H23.1211C23.7474 30.0892 24.2552 28.6673 24.6445 27.7363L34.3945 3.58984H42.5957V40ZM52.8545 8.54102C51.8897 8.54102 51.0603 8.22786 50.3662 7.60156C49.6892 6.97526 49.3506 6.17969 49.3506 5.21484C49.3506 4.25 49.6892 3.44596 50.3662 2.80273C51.0603 2.15951 51.8897 1.83789 52.8545 1.83789C53.8532 1.83789 54.6996 2.15951 55.3936 2.80273C56.0876 3.44596 56.4346 4.25 56.4346 5.21484C56.4346 6.12891 56.0876 6.91602 55.3936 7.57617C54.6996 8.2194 53.8532 8.54102 52.8545 8.54102ZM55.7745 40H49.8838V14H55.7745V40ZM81.0645 38.8066C78.9825 40.0085 76.5196 40.6094 73.6759 40.6094C69.8165 40.6094 66.7019 39.4076 64.3321 37.0039C61.9623 34.5833 60.7774 31.4518 60.7774 27.6094C60.7774 23.3268 62.047 19.8906 64.586 17.3008C67.142 14.694 70.5528 13.3906 74.8184 13.3906C77.1882 13.3906 79.2787 13.8053 81.0899 14.6348V20.1191C79.2787 18.765 77.349 18.0879 75.3009 18.0879C72.8126 18.0879 70.7729 18.9342 69.1817 20.627C67.5906 22.3027 66.795 24.5033 66.795 27.2285C66.795 29.9199 67.5398 32.0443 69.0294 33.6016C70.5359 35.1589 72.5502 35.9375 75.0723 35.9375C77.1882 35.9375 79.1856 35.1842 81.0645 33.6777V38.8066ZM100.972 19.6113C100.261 19.0527 99.2368 18.7734 97.8995 18.7734C96.156 18.7734 94.7003 19.5605 93.5323 21.1348C92.3644 22.709 91.7804 24.8503 91.7804 27.5586V40H85.8898V14H91.7804V19.3574H91.882C92.4575 17.5293 93.3377 16.1074 94.5226 15.0918C95.7244 14.0592 97.0616 13.543 98.5343 13.543C99.6007 13.543 100.413 13.7038 100.972 14.0254V19.6113ZM115.166 40.6094C111.154 40.6094 107.947 39.3991 105.543 36.9785C103.156 34.541 101.963 31.3164 101.963 27.3047C101.963 22.9375 103.207 19.5267 105.695 17.0723C108.201 14.6178 111.569 13.3906 115.801 13.3906C119.863 13.3906 123.029 14.584 125.297 16.9707C127.565 19.3574 128.699 22.6667 128.699 26.8984C128.699 31.0456 127.472 34.3717 125.018 36.877C122.58 39.3652 119.296 40.6094 115.166 40.6094ZM115.445 18.0879C113.143 18.0879 111.324 18.8919 109.986 20.5C108.649 22.1081 107.981 24.3255 107.981 27.1523C107.981 29.8776 108.658 32.0273 110.012 33.6016C111.366 35.1589 113.177 35.9375 115.445 35.9375C117.764 35.9375 119.542 35.1673 120.777 33.627C122.03 32.0866 122.656 29.8945 122.656 27.0508C122.656 24.1901 122.03 21.9811 120.777 20.4238C119.542 18.8665 117.764 18.0879 115.445 18.0879ZM132.052 39.1875V33.7285C134.252 35.4043 136.682 36.2422 139.339 36.2422C142.894 36.2422 144.671 35.1927 144.671 33.0938C144.671 32.5013 144.519 32.002 144.214 31.5957C143.909 31.1725 143.495 30.8001 142.97 30.4785C142.462 30.1569 141.853 29.8691 141.142 29.6152C140.448 29.3613 139.669 29.0736 138.806 28.752C137.739 28.3288 136.775 27.8802 135.911 27.4062C135.065 26.9323 134.354 26.3991 133.779 25.8066C133.22 25.1973 132.797 24.5117 132.509 23.75C132.221 22.9883 132.077 22.0996 132.077 21.084C132.077 19.8314 132.374 18.7311 132.966 17.7832C133.558 16.8184 134.354 16.0143 135.353 15.3711C136.351 14.7109 137.486 14.2201 138.755 13.8984C140.025 13.5599 141.336 13.3906 142.691 13.3906C145.094 13.3906 147.244 13.7546 149.14 14.4824V19.6367C147.312 18.3841 145.213 17.7578 142.843 17.7578C142.098 17.7578 141.421 17.834 140.812 17.9863C140.219 18.1387 139.711 18.3503 139.288 18.6211C138.865 18.8919 138.535 19.222 138.298 19.6113C138.061 19.9837 137.943 20.3984 137.943 20.8555C137.943 21.4141 138.061 21.888 138.298 22.2773C138.535 22.6667 138.882 23.0137 139.339 23.3184C139.813 23.6061 140.372 23.877 141.015 24.1309C141.675 24.3678 142.428 24.6302 143.275 24.918C144.392 25.375 145.39 25.8405 146.271 26.3145C147.168 26.7884 147.93 27.3301 148.556 27.9395C149.182 28.5319 149.665 29.2259 150.003 30.0215C150.342 30.8001 150.511 31.7311 150.511 32.8145C150.511 34.1348 150.206 35.2858 149.597 36.2676C148.988 37.2493 148.175 38.0618 147.159 38.7051C146.144 39.3483 144.967 39.8223 143.63 40.127C142.31 40.4486 140.913 40.6094 139.441 40.6094C136.597 40.6094 134.134 40.1354 132.052 39.1875ZM166.61 40.6094C162.598 40.6094 159.39 39.3991 156.987 36.9785C154.6 34.541 153.406 31.3164 153.406 27.3047C153.406 22.9375 154.651 19.5267 157.139 17.0723C159.644 14.6178 163.013 13.3906 167.244 13.3906C171.307 13.3906 174.472 14.584 176.74 16.9707C179.009 19.3574 180.143 22.6667 180.143 26.8984C180.143 31.0456 178.916 34.3717 176.461 36.877C174.024 39.3652 170.74 40.6094 166.61 40.6094ZM166.889 18.0879C164.587 18.0879 162.767 18.8919 161.43 20.5C160.093 22.1081 159.424 24.3255 159.424 27.1523C159.424 29.8776 160.101 32.0273 161.455 33.6016C162.809 35.1589 164.621 35.9375 166.889 35.9375C169.208 35.9375 170.985 35.1673 172.221 33.627C173.474 32.0866 174.1 29.8945 174.1 27.0508C174.1 24.1901 173.474 21.9811 172.221 20.4238C170.985 18.8665 169.208 18.0879 166.889 18.0879ZM198.958 6.30664C198.163 5.84961 197.257 5.62109 196.241 5.62109C193.381 5.62109 191.95 7.23763 191.95 10.4707V14H197.993V18.6211H191.976V40H186.085V18.6211H181.642V14H186.085V9.78516C186.085 7.04297 186.982 4.88477 188.777 3.31055C190.571 1.7194 192.814 0.923828 195.505 0.923828C196.961 0.923828 198.112 1.08464 198.958 1.40625V6.30664ZM215.819 39.7207C214.668 40.2962 213.153 40.584 211.274 40.584C206.229 40.584 203.707 38.1634 203.707 33.3223V18.6211H199.366V14H203.707V7.98242L209.598 6.30664V14H215.819V18.6211H209.598V31.6211C209.598 33.1615 209.877 34.2617 210.436 34.9219C210.994 35.582 211.925 35.9121 213.229 35.9121C214.228 35.9121 215.091 35.6243 215.819 35.0488V39.7207Z" fill="black"/>
<path d="M12.5078 183H3.07422V166.195H12.1328V168.562H5.86328V173.32H11.6406V175.676H5.86328V180.645H12.5078V183ZM25.0473 171L20.4067 183H17.4653L13.0473 171H16.0005L18.6606 179.391C18.8638 180.008 18.9888 180.547 19.0356 181.008H19.0708C19.1411 180.43 19.2505 179.906 19.3989 179.438L22.188 171H25.0473ZM36.3916 177.738H28.2119C28.2431 178.848 28.583 179.703 29.2314 180.305C29.8877 180.906 30.7861 181.207 31.9267 181.207C33.208 181.207 34.3838 180.824 35.4541 180.059V182.25C34.3603 182.938 32.915 183.281 31.1181 183.281C29.3525 183.281 27.9658 182.738 26.958 181.652C25.958 180.559 25.458 179.023 25.458 177.047C25.458 175.18 26.0088 173.66 27.1103 172.488C28.2197 171.309 29.5947 170.719 31.2353 170.719C32.8759 170.719 34.1455 171.246 35.0439 172.301C35.9423 173.355 36.3916 174.82 36.3916 176.695V177.738ZM33.7666 175.816C33.7588 174.84 33.5283 174.082 33.0752 173.543C32.622 172.996 31.997 172.723 31.2002 172.723C30.4189 172.723 29.7548 173.008 29.208 173.578C28.6689 174.148 28.3369 174.895 28.2119 175.816H33.7666ZM45.4623 173.59C45.1342 173.332 44.6616 173.203 44.0444 173.203C43.2397 173.203 42.5678 173.566 42.0288 174.293C41.4897 175.02 41.2202 176.008 41.2202 177.258V183H38.5014V171H41.2202V173.473H41.267C41.5327 172.629 41.9389 171.973 42.4858 171.504C43.0405 171.027 43.6577 170.789 44.3373 170.789C44.8295 170.789 45.2045 170.863 45.4623 171.012V173.59ZM58.2597 171L52.8456 184.922C51.7206 187.406 50.1425 188.648 48.1113 188.648C47.5409 188.648 47.0644 188.598 46.6816 188.496V186.234C47.1113 186.375 47.5019 186.445 47.8534 186.445C48.8691 186.445 49.6269 185.945 50.1269 184.945L50.9355 182.977L46.1659 171H49.1777L52.037 179.719C52.0683 179.828 52.1386 180.117 52.248 180.586H52.3066C52.3456 180.406 52.4159 180.125 52.5175 179.742L55.5175 171H58.2597ZM78.745 183H75.1122L69.2645 175.312C69.0458 175.023 68.913 174.828 68.8661 174.727H68.8192V183H66.0302V166.195H68.8192V174.094H68.8661C68.9598 173.922 69.0927 173.73 69.2645 173.52L74.9012 166.195H78.2411L71.6434 174.258L78.745 183ZM81.2884 168.48C80.8431 168.48 80.4603 168.336 80.14 168.047C79.8275 167.758 79.6712 167.391 79.6712 166.945C79.6712 166.5 79.8275 166.129 80.14 165.832C80.4603 165.535 80.8431 165.387 81.2884 165.387C81.7494 165.387 82.14 165.535 82.4603 165.832C82.7806 166.129 82.9408 166.5 82.9408 166.945C82.9408 167.367 82.7806 167.73 82.4603 168.035C82.14 168.332 81.7494 168.48 81.2884 168.48ZM82.6361 183H79.9173V171H82.6361V183ZM96.6288 183H93.91V180.961H93.8631C92.9881 182.508 91.6405 183.281 89.8202 183.281C88.3436 183.281 87.16 182.746 86.2694 181.676C85.3866 180.598 84.9452 179.133 84.9452 177.281C84.9452 175.297 85.4334 173.707 86.41 172.512C87.3944 171.316 88.703 170.719 90.3358 170.719C91.953 170.719 93.1288 171.367 93.8631 172.664H93.91V165.234H96.6288V183ZM93.9452 177.516V175.945C93.9452 175.094 93.6678 174.371 93.1131 173.777C92.5584 173.184 91.8514 172.887 90.992 172.887C89.9764 172.887 89.1756 173.266 88.5897 174.023C88.0116 174.781 87.7225 175.832 87.7225 177.176C87.7225 178.395 87.9998 179.359 88.5545 180.07C89.117 180.773 89.8709 181.125 90.8163 181.125C91.7459 181.125 92.4998 180.785 93.078 180.105C93.6561 179.418 93.9452 178.555 93.9452 177.516ZM117.852 182.297C116.587 182.953 115.012 183.281 113.13 183.281C110.692 183.281 108.739 182.512 107.27 180.973C105.802 179.434 105.067 177.414 105.067 174.914C105.067 172.227 105.891 170.055 107.54 168.398C109.196 166.742 111.286 165.914 113.809 165.914C115.434 165.914 116.782 166.145 117.852 166.605V169.371C116.72 168.699 115.47 168.363 114.102 168.363C112.282 168.363 110.805 168.945 109.673 170.109C108.548 171.273 107.985 172.828 107.985 174.773C107.985 176.625 108.512 178.102 109.567 179.203C110.622 180.297 112.009 180.844 113.727 180.844C115.313 180.844 116.688 180.469 117.852 179.719V182.297ZM129.466 183H126.829V181.125H126.783C125.954 182.562 124.74 183.281 123.138 183.281C121.958 183.281 121.033 182.961 120.361 182.32C119.697 181.68 119.365 180.832 119.365 179.777C119.365 177.512 120.669 176.191 123.279 175.816L126.841 175.312C126.841 173.602 126.029 172.746 124.404 172.746C122.974 172.746 121.685 173.238 120.536 174.223V171.844C121.802 171.094 123.263 170.719 124.919 170.719C127.95 170.719 129.466 172.211 129.466 175.195V183ZM126.841 177.105L124.322 177.457C123.54 177.559 122.95 177.75 122.552 178.031C122.161 178.305 121.966 178.789 121.966 179.484C121.966 179.992 122.146 180.41 122.505 180.738C122.872 181.059 123.361 181.219 123.97 181.219C124.798 181.219 125.482 180.93 126.021 180.352C126.568 179.766 126.841 179.031 126.841 178.148V177.105ZM143.002 183H140.283V176.238C140.283 173.996 139.49 172.875 137.904 172.875C137.076 172.875 136.392 173.188 135.853 173.812C135.314 174.43 135.045 175.211 135.045 176.156V183H132.314V171H135.045V172.992H135.092C135.99 171.477 137.287 170.719 138.982 170.719C140.287 170.719 141.283 171.145 141.97 171.996C142.658 172.84 143.002 174.062 143.002 175.664V183ZM164.003 182.297C162.737 182.953 161.163 183.281 159.28 183.281C156.842 183.281 154.889 182.512 153.421 180.973C151.952 179.434 151.217 177.414 151.217 174.914C151.217 172.227 152.042 170.055 153.69 168.398C155.346 166.742 157.436 165.914 159.96 165.914C161.585 165.914 162.932 166.145 164.003 166.605V169.371C162.87 168.699 161.62 168.363 160.253 168.363C158.432 168.363 156.956 168.945 155.823 170.109C154.698 171.273 154.135 172.828 154.135 174.773C154.135 176.625 154.663 178.102 155.717 179.203C156.772 180.297 158.159 180.844 159.878 180.844C161.464 180.844 162.839 180.469 164.003 179.719V182.297ZM171.726 183.281C169.874 183.281 168.394 182.723 167.284 181.605C166.183 180.48 165.632 178.992 165.632 177.141C165.632 175.125 166.206 173.551 167.355 172.418C168.511 171.285 170.066 170.719 172.019 170.719C173.894 170.719 175.355 171.27 176.402 172.371C177.448 173.473 177.972 175 177.972 176.953C177.972 178.867 177.405 180.402 176.273 181.559C175.148 182.707 173.632 183.281 171.726 183.281ZM171.855 172.887C170.792 172.887 169.952 173.258 169.335 174C168.718 174.742 168.409 175.766 168.409 177.07C168.409 178.328 168.722 179.32 169.347 180.047C169.972 180.766 170.808 181.125 171.855 181.125C172.925 181.125 173.745 180.77 174.316 180.059C174.894 179.348 175.183 178.336 175.183 177.023C175.183 175.703 174.894 174.684 174.316 173.965C173.745 173.246 172.925 172.887 171.855 172.887ZM191.179 183H188.461V180.961H188.414C187.539 182.508 186.191 183.281 184.371 183.281C182.894 183.281 181.711 182.746 180.82 181.676C179.937 180.598 179.496 179.133 179.496 177.281C179.496 175.297 179.984 173.707 180.961 172.512C181.945 171.316 183.254 170.719 184.886 170.719C186.504 170.719 187.679 171.367 188.414 172.664H188.461V165.234H191.179V183ZM188.496 177.516V175.945C188.496 175.094 188.218 174.371 187.664 173.777C187.109 173.184 186.402 172.887 185.543 172.887C184.527 172.887 183.726 173.266 183.14 174.023C182.562 174.781 182.273 175.832 182.273 177.176C182.273 178.395 182.55 179.359 183.105 180.07C183.668 180.773 184.422 181.125 185.367 181.125C186.297 181.125 187.05 180.785 187.629 180.105C188.207 179.418 188.496 178.555 188.496 177.516ZM204.41 177.738H196.231C196.262 178.848 196.602 179.703 197.25 180.305C197.906 180.906 198.805 181.207 199.945 181.207C201.227 181.207 202.402 180.824 203.473 180.059V182.25C202.379 182.938 200.934 183.281 199.137 183.281C197.371 183.281 195.985 182.738 194.977 181.652C193.977 180.559 193.477 179.023 193.477 177.047C193.477 175.18 194.027 173.66 195.129 172.488C196.238 171.309 197.613 170.719 199.254 170.719C200.895 170.719 202.164 171.246 203.063 172.301C203.961 173.355 204.41 174.82 204.41 176.695V177.738ZM201.785 175.816C201.777 174.84 201.547 174.082 201.094 173.543C200.641 172.996 200.016 172.723 199.219 172.723C198.438 172.723 197.774 173.008 197.227 173.578C196.688 174.148 196.356 174.895 196.231 175.816H201.785Z" fill="black"/>
<line x1="2" y1="151" x2="528" y2="151" stroke="#FFB900" stroke-width="8"/>
</svg>
